<mxfile host="Electron" modified="2025-01-26T06:46:10.719Z" agent="Mozilla/5.0 (Windows NT 10.0; Win64; x64) AppleWebKit/537.36 (KHTML, like Gecko) draw.io/24.1.0 Chrome/120.0.6099.109 Electron/28.1.0 Safari/537.36" etag="SNC1R1aclhd7SDJr2bZI" version="24.1.0" type="device">
  <diagram name="Page-1" id="mHdb2oYvGYssXOsI-dGc">
    <mxGraphModel dx="734" dy="505" grid="1" gridSize="10" guides="1" tooltips="1" connect="1" arrows="1" fold="1" page="1" pageScale="1" pageWidth="850" pageHeight="1100" math="0" shadow="0">
      <root>
        <mxCell id="0" />
        <mxCell id="1" parent="0" />
        <mxCell id="XuiR7fqwGl4kWOllmudi-7" style="edgeStyle=orthogonalEdgeStyle;rounded=0;orthogonalLoop=1;jettySize=auto;html=1;" parent="1" source="XuiR7fqwGl4kWOllmudi-6" edge="1">
          <mxGeometry relative="1" as="geometry">
            <mxPoint x="94.99999999999989" y="170" as="targetPoint" />
          </mxGeometry>
        </mxCell>
        <mxCell id="XuiR7fqwGl4kWOllmudi-9" value="0-9" style="edgeLabel;html=1;align=center;verticalAlign=middle;resizable=0;points=[];" parent="XuiR7fqwGl4kWOllmudi-7" vertex="1" connectable="0">
          <mxGeometry x="-0.0507" y="-4" relative="1" as="geometry">
            <mxPoint as="offset" />
          </mxGeometry>
        </mxCell>
        <mxCell id="XuiR7fqwGl4kWOllmudi-20" style="edgeStyle=orthogonalEdgeStyle;rounded=0;orthogonalLoop=1;jettySize=auto;html=1;exitX=0;exitY=1;exitDx=0;exitDy=0;" parent="1" source="XuiR7fqwGl4kWOllmudi-6" target="XuiR7fqwGl4kWOllmudi-21" edge="1">
          <mxGeometry relative="1" as="geometry">
            <mxPoint x="270" y="160" as="targetPoint" />
            <Array as="points">
              <mxPoint x="393" y="120" />
              <mxPoint x="271" y="120" />
            </Array>
          </mxGeometry>
        </mxCell>
        <mxCell id="XuiR7fqwGl4kWOllmudi-22" value="double quotation" style="edgeLabel;html=1;align=center;verticalAlign=middle;resizable=0;points=[];" parent="XuiR7fqwGl4kWOllmudi-20" vertex="1" connectable="0">
          <mxGeometry x="-0.1277" y="3" relative="1" as="geometry">
            <mxPoint as="offset" />
          </mxGeometry>
        </mxCell>
        <mxCell id="XuiR7fqwGl4kWOllmudi-28" style="edgeStyle=orthogonalEdgeStyle;rounded=0;orthogonalLoop=1;jettySize=auto;html=1;" parent="1" source="XuiR7fqwGl4kWOllmudi-6" target="XuiR7fqwGl4kWOllmudi-29" edge="1">
          <mxGeometry relative="1" as="geometry">
            <mxPoint x="412.5" y="160" as="targetPoint" />
          </mxGeometry>
        </mxCell>
        <mxCell id="XuiR7fqwGl4kWOllmudi-206" value="a-z" style="edgeLabel;html=1;align=center;verticalAlign=middle;resizable=0;points=[];" parent="XuiR7fqwGl4kWOllmudi-28" vertex="1" connectable="0">
          <mxGeometry x="-0.2672" y="-3" relative="1" as="geometry">
            <mxPoint as="offset" />
          </mxGeometry>
        </mxCell>
        <mxCell id="XuiR7fqwGl4kWOllmudi-228" value="" style="edgeStyle=orthogonalEdgeStyle;rounded=0;orthogonalLoop=1;jettySize=auto;html=1;" parent="1" source="XuiR7fqwGl4kWOllmudi-6" edge="1">
          <mxGeometry relative="1" as="geometry">
            <mxPoint x="597.5" y="160" as="targetPoint" />
            <Array as="points">
              <mxPoint x="597" y="100" />
            </Array>
          </mxGeometry>
        </mxCell>
        <mxCell id="XuiR7fqwGl4kWOllmudi-232" value="&amp;nbsp;&amp;lt; , &amp;gt; , =&amp;nbsp;" style="edgeLabel;html=1;align=center;verticalAlign=middle;resizable=0;points=[];" parent="XuiR7fqwGl4kWOllmudi-228" vertex="1" connectable="0">
          <mxGeometry x="-0.3954" y="3" relative="1" as="geometry">
            <mxPoint as="offset" />
          </mxGeometry>
        </mxCell>
        <mxCell id="XuiR7fqwGl4kWOllmudi-237" style="edgeStyle=orthogonalEdgeStyle;rounded=0;orthogonalLoop=1;jettySize=auto;html=1;" parent="1" source="XuiR7fqwGl4kWOllmudi-6" edge="1">
          <mxGeometry relative="1" as="geometry">
            <mxPoint x="700" y="180" as="targetPoint" />
          </mxGeometry>
        </mxCell>
        <mxCell id="XuiR7fqwGl4kWOllmudi-238" value="( , ) , | , [ , ] &lt;font color=&quot;#cc0066&quot;&gt;,&lt;/font&gt; ,&lt;font color=&quot;#cc0066&quot;&gt; ,&lt;/font&gt; ; , + , - ,&amp;nbsp; % , *" style="edgeLabel;html=1;align=center;verticalAlign=middle;resizable=0;points=[];" parent="XuiR7fqwGl4kWOllmudi-237" vertex="1" connectable="0">
          <mxGeometry x="-0.2197" y="4" relative="1" as="geometry">
            <mxPoint as="offset" />
          </mxGeometry>
        </mxCell>
        <mxCell id="XuiR7fqwGl4kWOllmudi-6" value="start" style="ellipse;whiteSpace=wrap;html=1;align=center;" parent="1" vertex="1">
          <mxGeometry x="370" y="60" width="55" height="50" as="geometry" />
        </mxCell>
        <mxCell id="XuiR7fqwGl4kWOllmudi-13" style="edgeStyle=orthogonalEdgeStyle;rounded=0;orthogonalLoop=1;jettySize=auto;html=1;exitX=1;exitY=0;exitDx=0;exitDy=0;entryX=1;entryY=1;entryDx=0;entryDy=0;" parent="1" edge="1">
          <mxGeometry relative="1" as="geometry">
            <mxPoint x="112.67766952966372" y="177.3223304703364" as="sourcePoint" />
            <mxPoint x="112.67766952966372" y="212.67766952966372" as="targetPoint" />
            <Array as="points">
              <mxPoint x="180" y="177" />
              <mxPoint x="180" y="213" />
            </Array>
          </mxGeometry>
        </mxCell>
        <mxCell id="XuiR7fqwGl4kWOllmudi-14" value="0-9" style="edgeLabel;html=1;align=center;verticalAlign=middle;resizable=0;points=[];" parent="XuiR7fqwGl4kWOllmudi-13" vertex="1" connectable="0">
          <mxGeometry x="0.0111" y="-1" relative="1" as="geometry">
            <mxPoint as="offset" />
          </mxGeometry>
        </mxCell>
        <mxCell id="XuiR7fqwGl4kWOllmudi-25" style="edgeStyle=orthogonalEdgeStyle;rounded=0;orthogonalLoop=1;jettySize=auto;html=1;exitX=0.5;exitY=1;exitDx=0;exitDy=0;" parent="1" source="XuiR7fqwGl4kWOllmudi-21" target="XuiR7fqwGl4kWOllmudi-26" edge="1">
          <mxGeometry relative="1" as="geometry">
            <mxPoint x="264.78260869565224" y="280" as="targetPoint" />
          </mxGeometry>
        </mxCell>
        <mxCell id="XuiR7fqwGl4kWOllmudi-27" value="double quotation" style="edgeLabel;html=1;align=center;verticalAlign=middle;resizable=0;points=[];" parent="XuiR7fqwGl4kWOllmudi-25" vertex="1" connectable="0">
          <mxGeometry x="-0.2584" y="-5" relative="1" as="geometry">
            <mxPoint as="offset" />
          </mxGeometry>
        </mxCell>
        <mxCell id="XuiR7fqwGl4kWOllmudi-21" value="str1" style="ellipse;whiteSpace=wrap;html=1;align=center;" parent="1" vertex="1">
          <mxGeometry x="240" y="160" width="50" height="50" as="geometry" />
        </mxCell>
        <mxCell id="XuiR7fqwGl4kWOllmudi-23" style="edgeStyle=orthogonalEdgeStyle;rounded=0;orthogonalLoop=1;jettySize=auto;html=1;exitX=1;exitY=0;exitDx=0;exitDy=0;entryX=1;entryY=1;entryDx=0;entryDy=0;" parent="1" source="XuiR7fqwGl4kWOllmudi-21" target="XuiR7fqwGl4kWOllmudi-21" edge="1">
          <mxGeometry relative="1" as="geometry">
            <Array as="points">
              <mxPoint x="340" y="167" />
              <mxPoint x="340" y="203" />
            </Array>
          </mxGeometry>
        </mxCell>
        <mxCell id="XuiR7fqwGl4kWOllmudi-24" value="space , a-z , 0-9" style="edgeLabel;html=1;align=center;verticalAlign=middle;resizable=0;points=[];" parent="XuiR7fqwGl4kWOllmudi-23" vertex="1" connectable="0">
          <mxGeometry x="-0.0162" relative="1" as="geometry">
            <mxPoint as="offset" />
          </mxGeometry>
        </mxCell>
        <mxCell id="XuiR7fqwGl4kWOllmudi-26" value="str2" style="ellipse;shape=doubleEllipse;margin=3;whiteSpace=wrap;html=1;align=center;" parent="1" vertex="1">
          <mxGeometry x="240" y="280" width="50" height="50" as="geometry" />
        </mxCell>
        <mxCell id="XuiR7fqwGl4kWOllmudi-209" style="edgeStyle=orthogonalEdgeStyle;rounded=0;orthogonalLoop=1;jettySize=auto;html=1;entryX=0.5;entryY=0;entryDx=0;entryDy=0;" parent="1" source="XuiR7fqwGl4kWOllmudi-29" target="XuiR7fqwGl4kWOllmudi-212" edge="1">
          <mxGeometry relative="1" as="geometry">
            <mxPoint x="413.125" y="350" as="targetPoint" />
          </mxGeometry>
        </mxCell>
        <mxCell id="XuiR7fqwGl4kWOllmudi-211" value="space" style="edgeLabel;html=1;align=center;verticalAlign=middle;resizable=0;points=[];" parent="XuiR7fqwGl4kWOllmudi-209" vertex="1" connectable="0">
          <mxGeometry x="-0.0647" y="-1" relative="1" as="geometry">
            <mxPoint as="offset" />
          </mxGeometry>
        </mxCell>
        <mxCell id="XuiR7fqwGl4kWOllmudi-29" value="id1" style="ellipse;whiteSpace=wrap;html=1;align=center;" parent="1" vertex="1">
          <mxGeometry x="386.25" y="220" width="52.5" height="50" as="geometry" />
        </mxCell>
        <mxCell id="XuiR7fqwGl4kWOllmudi-207" style="edgeStyle=orthogonalEdgeStyle;rounded=0;orthogonalLoop=1;jettySize=auto;html=1;exitX=1;exitY=0;exitDx=0;exitDy=0;entryX=1;entryY=1;entryDx=0;entryDy=0;" parent="1" source="XuiR7fqwGl4kWOllmudi-29" target="XuiR7fqwGl4kWOllmudi-29" edge="1">
          <mxGeometry relative="1" as="geometry">
            <Array as="points">
              <mxPoint x="480" y="227" />
              <mxPoint x="480" y="263" />
            </Array>
          </mxGeometry>
        </mxCell>
        <mxCell id="XuiR7fqwGl4kWOllmudi-208" value="a-z , 0-9 , _" style="edgeLabel;html=1;align=center;verticalAlign=middle;resizable=0;points=[];" parent="XuiR7fqwGl4kWOllmudi-207" vertex="1" connectable="0">
          <mxGeometry x="0.0144" y="-3" relative="1" as="geometry">
            <mxPoint as="offset" />
          </mxGeometry>
        </mxCell>
        <mxCell id="XuiR7fqwGl4kWOllmudi-223" style="edgeStyle=orthogonalEdgeStyle;rounded=0;orthogonalLoop=1;jettySize=auto;html=1;exitX=0;exitY=0.5;exitDx=0;exitDy=0;entryX=0.5;entryY=0;entryDx=0;entryDy=0;" parent="1" source="XuiR7fqwGl4kWOllmudi-212" target="XuiR7fqwGl4kWOllmudi-218" edge="1">
          <mxGeometry relative="1" as="geometry">
            <Array as="points">
              <mxPoint x="240" y="395" />
              <mxPoint x="240" y="440" />
            </Array>
          </mxGeometry>
        </mxCell>
        <mxCell id="XuiR7fqwGl4kWOllmudi-224" value="resevedword = false" style="edgeLabel;html=1;align=center;verticalAlign=middle;resizable=0;points=[];" parent="XuiR7fqwGl4kWOllmudi-223" vertex="1" connectable="0">
          <mxGeometry x="-0.328" y="-4" relative="1" as="geometry">
            <mxPoint as="offset" />
          </mxGeometry>
        </mxCell>
        <mxCell id="XuiR7fqwGl4kWOllmudi-225" style="edgeStyle=orthogonalEdgeStyle;rounded=0;orthogonalLoop=1;jettySize=auto;html=1;entryX=0.5;entryY=0;entryDx=0;entryDy=0;" parent="1" source="XuiR7fqwGl4kWOllmudi-212" target="XuiR7fqwGl4kWOllmudi-215" edge="1">
          <mxGeometry relative="1" as="geometry" />
        </mxCell>
        <mxCell id="XuiR7fqwGl4kWOllmudi-226" value="reservedword = true" style="edgeLabel;html=1;align=center;verticalAlign=middle;resizable=0;points=[];" parent="XuiR7fqwGl4kWOllmudi-225" vertex="1" connectable="0">
          <mxGeometry x="-0.2023" relative="1" as="geometry">
            <mxPoint as="offset" />
          </mxGeometry>
        </mxCell>
        <mxCell id="XuiR7fqwGl4kWOllmudi-212" value="check word" style="ellipse;whiteSpace=wrap;html=1;align=center;" parent="1" vertex="1">
          <mxGeometry x="387.5" y="370" width="50" height="50" as="geometry" />
        </mxCell>
        <mxCell id="XuiR7fqwGl4kWOllmudi-215" value="rw" style="ellipse;shape=doubleEllipse;margin=3;whiteSpace=wrap;html=1;align=center;" parent="1" vertex="1">
          <mxGeometry x="385" y="500" width="50" height="50" as="geometry" />
        </mxCell>
        <mxCell id="XuiR7fqwGl4kWOllmudi-218" value="id" style="ellipse;shape=doubleEllipse;margin=3;whiteSpace=wrap;html=1;align=center;" parent="1" vertex="1">
          <mxGeometry x="220" y="440" width="50" height="50" as="geometry" />
        </mxCell>
        <mxCell id="XuiR7fqwGl4kWOllmudi-235" style="edgeStyle=orthogonalEdgeStyle;rounded=0;orthogonalLoop=1;jettySize=auto;html=1;" parent="1" source="XuiR7fqwGl4kWOllmudi-231" target="XuiR7fqwGl4kWOllmudi-234" edge="1">
          <mxGeometry relative="1" as="geometry" />
        </mxCell>
        <mxCell id="XuiR7fqwGl4kWOllmudi-236" value="&amp;nbsp;&amp;lt; , &amp;gt; , =&amp;nbsp;" style="edgeLabel;html=1;align=center;verticalAlign=middle;resizable=0;points=[];" parent="XuiR7fqwGl4kWOllmudi-235" vertex="1" connectable="0">
          <mxGeometry x="-0.1228" y="5" relative="1" as="geometry">
            <mxPoint as="offset" />
          </mxGeometry>
        </mxCell>
        <mxCell id="XuiR7fqwGl4kWOllmudi-231" value="sym1" style="ellipse;shape=doubleEllipse;margin=3;whiteSpace=wrap;html=1;align=center;" parent="1" vertex="1">
          <mxGeometry x="570" y="160" width="50" height="50" as="geometry" />
        </mxCell>
        <mxCell id="XuiR7fqwGl4kWOllmudi-233" value="sym3" style="ellipse;shape=doubleEllipse;margin=3;whiteSpace=wrap;html=1;align=center;" parent="1" vertex="1">
          <mxGeometry x="680" y="180" width="50" height="50" as="geometry" />
        </mxCell>
        <mxCell id="XuiR7fqwGl4kWOllmudi-234" value="sym2" style="ellipse;shape=doubleEllipse;margin=3;whiteSpace=wrap;html=1;align=center;" parent="1" vertex="1">
          <mxGeometry x="570" y="290" width="50" height="50" as="geometry" />
        </mxCell>
        <mxCell id="XuiR7fqwGl4kWOllmudi-240" value="num1" style="ellipse;shape=doubleEllipse;margin=3;whiteSpace=wrap;html=1;align=center;" parent="1" vertex="1">
          <mxGeometry x="70" y="170" width="55" height="50" as="geometry" />
        </mxCell>
      </root>
    </mxGraphModel>
  </diagram>
</mxfile>
